<svg xmlns="http://www.w3.org/2000/svg" viewBox="0 0 397.46 395.1"><defs><style>.cls-1{fill:#48423c;}</style></defs><g id="Layer_2" data-name="Layer 2"><g id="_1920_Circular-Demo_1" data-name="1920_Circular-Demo_1"><g id="Demo-1_Rings"><g id="demo-1_circle-4"><path class="cls-1" d="M132.75,96.74l-6.4,5.41L92,80l24.31,28.76,2.13-1.8.94,1.1-8.7,7.36-.94-1.11,2.13-1.8L63.22,55l-2.13,1.8-.94-1.11,8.7-7.36.94,1.11-2.13,1.81L90.38,78.13,78.24,42.3,76,44.18l-.94-1.11L81.14,38l.94,1.11-2.14,1.8L90.48,72.19l39.2,25.24,2.13-1.8Z"/><path class="cls-1" d="M150.59,75.37c3.36,6.68.24,13.14-5.65,16.11A14.32,14.32,0,0,1,137.7,93l2.12,7.94-1.79.9-2.43-9.29a11.18,11.18,0,0,1-7.07-6.07l-25-49.69c-3.37-6.68-.14-13.19,5.74-16.16a13.63,13.63,0,0,1,7.14-1.47l-2.12-7.94,1.8-.9,2.42,9.28a11.17,11.17,0,0,1,7.07,6.08ZM117.44,23.26a6.23,6.23,0,0,0-7.55-1.33c-3.5,1.76-4.58,5.56-2.62,9.45l25.6,50.79Zm29.37,57.52L121.21,30,136.64,88.9a6.36,6.36,0,0,0,7.65,1.28C147.78,88.42,148.77,84.67,146.81,80.78Z"/><path class="cls-1" d="M180.51,67.82c1.68,7.19-2.8,12.59-9.22,14.09s-12.83-1.36-14.5-8.54L144,18.75c-1.68-7.18,2.68-12.57,9.21-14.09S166.06,6,167.74,13.2l2.82,12.08L164.9,26.6l-3.53-15.12c-1-4.25-4-6.3-7.81-5.41S148,10.13,149,14.38l14.2,60.71c1,4.25,4,6.3,7.8,5.41s5.59-4.06,4.6-8.31l-7.43-31.77-6.2,1.45-.35-1.52,11.86-2.77Z"/><path class="cls-1" d="M210.7,78.23H185.33V76.77h2.8l0-75.32h-2.8V0h25.37V23.47H204.9v-22H194V36.09h10.5v1.56H194V76.77h10.95v-22h5.81Z"/><path class="cls-1" d="M267.77,37.26l-5.48-1.92,7.27-20.78L260,11.2,248.52,43.9l9.28,3.24-.52,1.48L248,45.37,235.08,82.29l2.64.92-.48,1.37-10.76-3.76.48-1.37,2.64.92L254.48,9.28l-2.64-.92L252.32,7l23.2,8.12Z"/><path class="cls-1" d="M279,93.74c-4,6.33-11.14,7-16.72,3.45s-8.16-10.3-4.16-16.63l29.71-47.05c4-6.33,11.24-6.91,16.81-3.39s8.07,10.25,4.07,16.58Zm-6.59-.45L305.51,41c2.32-3.68,1.7-7.51-1.6-9.6s-7.13-1.06-9.46,2.62L261.4,86.3c-2.32,3.69-1.61,7.58,1.7,9.66S270.13,97,272.45,93.29Z"/><path class="cls-1" d="M294.85,125.12l-1.71-1.77c-2.8-2.88-2.92-5.73.29-8.84l19.32-18.76c3.13-3,3.43-6.9.7-9.71L310,82.43l-28.07,27.24,1.95,2-1,1-7.94-8.18,1-1,1.95,2,54-52.45-1.94-2,1-1,9.49,9.78c4.6,4.73,5.44,11.85.07,17.07l-10,9.72c-4.41,4.28-9.47,4.21-13.62,1.85,2.23,4.23,2.15,9.28-2.26,13.56l-18.28,17.75c-1.6,1.55-1.86,2.89-.61,4.17l.15.17Zm29.37-40.5,14.51-14.08c3.13-3,3.43-6.9.7-9.71l-3.5-3.61L311,81.42l3.5,3.61C317.22,87.84,321.09,87.66,324.22,84.62Z"/><path class="cls-1" d="M314.43,163.3,311,155.65l30.85-26.84-34.39,15.33,1.13,2.55-1.32.59-4.64-10.41,1.32-.59,1.14,2.55,68.79-30.66-1.13-2.55,1.32-.59,4.64,10.41-1.32.59-1.14-2.55-32.15,14.33,37.79-1.68-1.18-2.65,1.32-.59,3.23,7.25-1.33.59-1.13-2.55-33,1.38-35.17,30.6,1.13,2.55Z"/><path class="cls-1" d="M320,199.86l-3.52-25.12,1.44-.2.38,2.76,23-3.22-1.3-9.29-23.59-.87.39,2.76-1.44.2-1-7.19,1.44-.2.31,2.21,76.46,2.94-.34-2.43,1.43-.2,3.79,27-23.24,3.25-.81-5.75,21.8-3-1.52-10.85-34.3,4.81,1.46,10.4-1.55.22-1.46-10.41-38.73,5.43,1.52,10.84,21.8-3.05.81,5.75Zm22.76-26,50.13-7-51.4-2.06Z"/><path class="cls-1" d="M315.4,229.35l.34-2.43c.56-4,2.74-5.83,7.16-5.2l26.67,3.75c4.31.61,7.55-1.53,8.09-5.4l.7-5-38.72-5.45-.39,2.76-1.44-.2,1.59-11.28,1.44.2-.39,2.76L395,214.38l.39-2.76,1.44.2-1.9,13.5c-.92,6.53-6,11.56-13.44,10.52l-13.83-2c-6.09-.86-9.13-4.9-9.82-9.62-2,4.35-6,7.39-12.09,6.54l-25.23-3.56c-2.21-.31-3.43.31-3.67,2.08l0,.22Zm50-1.65,20,2.82c4.32.61,7.55-1.53,8.1-5.4l.7-5-34.41-4.85-.7,5C358.55,224.14,361.07,227.09,365.39,227.7Z"/><path class="cls-1" d="M306.31,252.52l8.81-23,1.35.52-1,2.61,70.32,27,1-2.61,1.36.52-4.09,10.65-1.35-.52,1-2.61-70.32-27-3.64,9.49,20.55,7.89-2.08,5.42Z"/><path class="cls-1" d="M299,264.26l5.82-9.8,1.25.74-1.43,2.4L369.37,296l1.43-2.4,1.25.74-5.82,9.81-1.25-.74,1.43-2.41L301.63,262.6,300.2,265Z"/><path class="cls-1" d="M289.74,293.17c-5.58-4.83-5.13-11.83-.82-16.82s11.19-6.43,16.76-1.6l42.42,36.71c5.57,4.83,5.2,11.75.81,16.82s-11.18,6.43-16.76,1.6l-9.38-8.11,3.81-4.4,11.74,10.17c3.3,2.85,6.93,2.75,9.49-.21s2.14-6.57-1.15-9.42L299.51,277.1c-3.29-2.86-6.93-2.75-9.49.2s-2.14,6.58,1.16,9.43l24.67,21.35,4.17-4.81,1.18,1-8,9.21Z"/><path class="cls-1" d="M256,304.67l9.29-6.6.84,1.19-2.28,1.62,22.64,31.88,10-7.11-22.63-31.89-2.28,1.62-.84-1.19L280,287.6l.84,1.18-2.28,1.62,43.6,61.41,2.28-1.62.84,1.18L316,358l-.84-1.18,2.28-1.62-20.05-28.25-10,7.12,20,28.24,2.28-1.61.84,1.18-9.3,6.6-.84-1.19,2.28-1.61-43.59-61.41-2.28,1.62Z"/><path class="cls-1" d="M231.84,314.19l23.56-9.41.54,1.35-2.6,1,27.93,69.94,2.59-1,.54,1.35-23.56,9.4L252.14,365l5.4-2.16,8.16,20.45,10.17-4.06L263,347.1,253.27,351l-.58-1.45,9.76-3.9L248,309.32l-10.17,4.06,8.16,20.45-5.4,2.15Z"/><path class="cls-1" d="M205.45,330.49c-1.09-7.41,3.92-12.55,10.44-13.5l14.26-2.1.21,1.44-2.76.41,10.93,74.51,2.76-.41.21,1.44-14.26,2.09c-6.52,1-12.79-2.53-13.88-9.93Zm5.29-3.94,8.83,60.14c.63,4.31,3.59,6.81,7.46,6.24l5.75-.84-10.93-74.51-5.75.84C212.23,319,210.11,322.24,210.74,326.55Z"/><path class="cls-1" d="M159.53,324.79c1.52-7.33,8-10.44,14.44-9.09l13.57,2.82-.29,1.42-2.74-.57-15.33,73.74,2.73.57-.29,1.42-13.57-2.82c-6.46-1.34-11.15-6.77-9.62-14.1l2.84-13.67c1.25-6,5.48-8.8,10.24-9.18-4.21-2.24-7-6.47-5.74-12.49Zm-1.93,37.83-4.12,19.81c-.89,4.26,1,7.63,4.87,8.43l5.14,1.07,7.07-34-5.14-1.07C161.59,356,158.48,358.36,157.6,362.62Zm8.25-39.71-5,24.07c-.89,4.27,1,7.64,4.87,8.43l5.14,1.07,8-38.29-5.14-1.07C169.85,316.32,166.74,318.64,165.85,322.91Z"/><path class="cls-1" d="M100.33,369.38l2.52,1.21,28.22-59.09c3.23-6.75,9.94-8.38,16-5.49,6.46,3.09,9.22,9.23,6,16l-28.22,59.08,2.52,1.21-.62,1.31-10.29-4.91.63-1.31,2.52,1.2,29.57-61.91c1.87-3.93,1.21-7.47-2.72-9.35-3.63-1.73-6.9-.07-8.78,3.86l-29.57,61.91,2.52,1.2-.62,1.32L99.7,370.69Z"/><path class="cls-1" d="M123.44,292l9.22,6.7-.85,1.18-2.26-1.65L85.24,359.1l2.26,1.64-.85,1.18-9.22-6.71.86-1.17,2.25,1.64,44.31-60.89-2.26-1.65Z"/><path class="cls-1" d="M104.3,273.45,121.49,291l-1,1-2-2L64.65,342.7l1.95,2-1,1-8-8.15,1-1,2,2,53.85-52.65-7.11-7.27L91.59,294l-4.07-4.16Z"/><path class="cls-1" d="M79.44,256.12c6.39-3.9,13.08-1.3,16.51,4.33l7.51,12.3-1.24.76-1.45-2.38-64.3,39.21,1.45,2.39-1.24.75-7.5-12.3c-3.44-5.63-2.68-12.77,3.71-16.67Zm5.7,3.33L33.24,291.1c-3.72,2.27-4.86,6-2.82,9.32l3,5,64.3-39.21-3-5C92.68,257.87,88.86,257.18,85.14,259.45Z"/><path class="cls-1" d="M84.47,235.88l4.08,10.64-1.36.52-1-2.61-70.31,27,1,2.61-1.36.52L11.44,263.9l1.35-.52,1,2.6,70.32-27-1-2.61Z"/><path class="cls-1" d="M2.69,221.42l.52,2.75,75.42-14.3.81,4.28-65,28,66.42-12.6-.52-2.74,1.42-.27,1.46,7.68-1.43.27-.52-2.74-74,14,.52,2.74-1.43.27-1.6-8.45,59.1-25.42L3.62,226.36l.52,2.75-1.42.27-1.46-7.69Z"/><path class="cls-1" d="M68.21,180c7.37.34,11.36,6.11,11.05,12.7s-4.79,12-12.16,11.63l-56-2.56c-7.37-.34-11.36-6-11-12.7s4.8-12,12.16-11.64l12.39.57-.26,5.8-15.52-.71c-4.35-.2-7.14,2.14-7.32,6s2.38,6.49,6.74,6.69l62.28,2.85c4.35.2,7.15-2.13,7.32-6s-2.38-6.48-6.74-6.68l-32.59-1.5-.29,6.37-1.56-.08.55-12.16Z"/><path class="cls-1" d="M22,110.24l-1.06,2.58,67.75,37.4-2.09,5.07L12.2,134l-1.07,2.58L9.79,136l4.38-10.65,1.34.56-1.06,2.58,66.84,19.63L20.06,114.89,19,117.47l-1.35-.55,3-7.24Z"/><path class="cls-1" d="M100,129.52l-6.07,9.65-1.23-.78L94.2,136,30.48,95.89,29,98.25l-1.23-.77,6.07-9.64,1.23.77L33.57,91,97.3,131.11l1.49-2.36Z"/></g></g></g></g></svg>