<svg xmlns="http://www.w3.org/2000/svg" viewBox="0 0 969.41 969.82"><defs><style>.cls-1{fill:#48423c;}</style></defs><g id="Layer_2" data-name="Layer 2"><g id="_1920_Circular-Demo_1" data-name="1920_Circular-Demo_1"><g id="Demo-1_Rings"><g id="demo-1_circle-2"><path class="cls-1" d="M185.15,118.51l58.95,65.28c3.44,3.81,6,5.06,8.37,5.56,1.85,12.88-1.41,25.12-11,33.78-8.27,7.47-19.12,11.3-23.89,11.56L210,213.63l3.46-1.45a10.06,10.06,0,0,0,1.41,1.82c2.38,2.63,7.66,2.15,12-1.77,4.73-4.27,4.76-9.78.49-14.51L169,133.1c-3-3.29-6.72-3.23-9.09-1.09l-2.25-2.5L182.6,107l2.26,2.49C182.36,111.72,182.42,115.49,185.15,118.51Z"/><path class="cls-1" d="M355.56,147.55a22.13,22.13,0,0,0-7.05,2.59l-43,23.17-1.59-3c2.8-1.51,3.81-4.87,1.71-8.76l-4.28-8c-1.37,1.94-4.39,4.17-7.66,5.94a20.57,20.57,0,0,1-8.71,2.48l2.16,8.49a41.79,41.79,0,0,0,1.57,4.78c.67,1.24,2.59,1.82,5.23.39l1.6,3L269.05,193l-1.59-3c2.18-1.17,2.74-3.49,1.85-6.63L242.74,78.07a12.87,12.87,0,0,0-1.13-3.22c-.92-1.71-2.14-2.86-4.79-1.43l-1.51-2.81,52.82-28.45c4.05-2.18,5.67-3.66,6.5-4.71L310.25,56l-3,2.63c-2.94-2.84-6-3.38-9.47-1.53l-18.7,10.07,13.85,25.71L309.44,84a6.16,6.16,0,0,0,2.75-8.32L315.31,74l14.1,26.18-3.12,1.68c-1.51-2.81-4.56-4.38-8.46-2.28l-16.36,8.81,19.64,36.46L339.34,135c4.05-2.18,5.23-5.22,5-9.73l3.38-.82ZM261,78.7l-.31.17,19.4,64.73a12.13,12.13,0,0,0,6.84-1.47,14.22,14.22,0,0,0,5.47-5.16Z"/><path class="cls-1" d="M419.06,75.34l8.78,37.2c.81,3.45,2.35,7.63,4,9.8-6.09,5.8-15.86,11.38-27.58,14.15-24.11,5.69-41.13-15.57-50.4-54.84-10.46-44.27,3.47-65.38,23.63-70.14,3.44-.81,9-1,11.61-1.65a11.66,11.66,0,0,0,3.76-1.8l8.85,22.1-3.5,2.1c-3.55-4.25-6.84-5.84-13.73-4.22-12.4,2.93-16,18.34-9,48.31,9.11,38.59,17.75,44.37,27.91,42a16.07,16.07,0,0,0,3-1.08l-8.7-36.86c-1-4.31-4.09-5.76-7.19-5l-.81-3.45,32.72-7.72.82,3.44C420.14,68.35,418.12,71.37,419.06,75.34Z"/><path class="cls-1" d="M503.53,126.49c-1.26-.86-4.45-1.32-8.17-1.24l-47.95,1-.07-3.36c3.18-.07,5.78-2.6,5.69-7l-2.2-103.33c-.1-4.43-2.62-6.67-6-6.6l-.08-3.36,45.3-1c5.49-.11,8.66-.89,9.7-1.62l5.29,24-3.86,1.32c-1.5-3.86-3.85-6.11-7.74-6l-21.06.45L473,48.9l18.4-.4a6.32,6.32,0,0,0,6.42-6.15l3.54-.08L502,72l-3.53.08c-.07-3.19-2.26-6-6.68-5.88l-18.22.39.88,41.4,20.52-.44c4.6-.09,6.85-2.44,8.71-6.55l3.56,1Z"/><path class="cls-1" d="M563.63,134c-1.11-11.94-.58-37.07,1.06-51.17L556,81.15l-7.62,39.44c-.74,3.83.78,7.18,4.42,7.89l-.63,3.3-32.67-6.31.64-3.3c3.12.6,6.2-1.33,7-5.67L546.79,15c.81-4.17-.46-6.94-4.46-7.72L543,4c5.49.52,19.91,2.41,30.86,4.52,21.89,4.24,34.5,17.31,29.43,43.55C599.8,70,593.05,77.85,583.7,80.55a455.54,455.54,0,0,0,1.94,48.69c.34,2.95,2.61,6.09,5.57,6.66l-.64,3.3ZM571,26.18a28.66,28.66,0,0,0-4.2-.64l-7.52,38.93a37,37,0,0,0,4.13,1c7.48,1.44,14.95-1.8,17.94-17.27C584.26,32.89,577.91,27.52,571,26.18Z"/><path class="cls-1" d="M619.75,154c-5.71-2.4-9.62-6.35-12.72-7.65a17.08,17.08,0,0,0-5.08-1.17l7.09-26,4.39.5c-1.11,7.22.68,12.57,10.63,16.75,7,3,14.23.41,17.72-7.91,3.84-9.14,2.78-16.69-1.59-30C634.13,80,631.69,67.09,637,54.37c7-16.65,21.07-23.21,38.37-15.95,4.57,1.92,8.81,6,12.23,7.44a13.77,13.77,0,0,0,5.38.92l-5.69,23.14-4.16-.6C683,64.26,679.64,59.4,671.65,56c-6.53-2.74-12.24.81-14.57,6.36-1.85,4.41-2,8.78-.57,14.16,1.88,6.93,3.43,12.38,5.2,18.69,4.15,14.8,5.93,26.1.45,39.16C653.25,155.62,637.54,161.5,619.75,154Z"/><path class="cls-1" d="M704.69,151.56a17.33,17.33,0,0,1-2.41-1.82L685.84,174.3c-2.36,3.53-1.78,7.12,1.31,9.19l-1.87,2.79-27.94-18.71,1.87-2.79c2.65,1.77,6.23,1.19,8.69-2.49L725,77c2.76-4.12,2.37-7.36-.72-9.43l1.87-2.79c5.74,3.2,11.62,6.5,22.21,13.59,19.42,13,24.29,32.44,7.94,56.85C739.67,160.07,721.75,163,704.69,151.56Zm37.26-56a19.62,19.62,0,0,0-2.45-1.43l-27.47,41a18.1,18.1,0,0,0,2.26,1.72c6,4,13.54,1.4,23.78-13.9C747.72,108.6,747.68,99.42,742,95.58Z"/><path class="cls-1" d="M750.86,242.48c5.93-10.41,20.79-30.69,30.23-41.3l-6.15-6.36-28.88,27.93c-2.8,2.71-3.48,6.33-.9,9l-2.42,2.34-23.13-23.92,2.42-2.34c2.21,2.29,5.84,2.48,9-.6l74.29-71.86c3-3,3.61-5.94.78-8.87l2.41-2.34c4.2,3.58,14.92,13.39,22.68,21.41,15.5,16,18.33,34-.88,52.55-13.1,12.68-23.16,15.26-32.37,12.11a454.5,454.5,0,0,0-26.34,41c-1.42,2.6-1.36,6.48.73,8.64l-2.41,2.34Zm67.87-84.1a28.45,28.45,0,0,0-3.08-2.93L787.15,183a36.34,36.34,0,0,0,2.83,3.18c5.29,5.47,13.27,7.1,24.59-3.85S823.65,163.47,818.73,158.38Z"/><path class="cls-1" d="M775.2,271.67l2.8-1.88c1.77,2.65,5.31,3.48,9,1l85.9-57.5c3.67-2.46,4.4-5.5,2.34-8.59l2.79-1.87,18.61,27.8-2.8,1.87c-2.16-3.24-5.16-3.58-8.83-1.12l-85.9,57.5c-3.53,2.36-4.55,5.6-2.49,8.69l-2.79,1.87Z"/><path class="cls-1" d="M808.58,332.59c-2.59-5.63-2.8-11.18-4.2-14.23a17.16,17.16,0,0,0-3-4.3l22.8-14.37,2.9,3.34c-5.69,4.56-8,9.71-3.49,19.52,3.18,6.92,10.21,9.92,18.41,6.15,9-4.14,13.33-10.42,19.13-23.21,8-17.72,15-28.89,27.5-34.66,16.4-7.54,31.22-2.86,39.05,14.19,2.07,4.5,2.44,10.37,4,13.75a13.74,13.74,0,0,0,3.34,4.3l-19.83,13.21L912.56,313c3.3-3.85,4.12-9.69.5-17.57-3-6.43-9.57-7.67-15-5.16-4.34,2-7.37,5.14-10,10.05-3.29,6.38-5.83,11.45-8.8,17.29-6.94,13.71-13.27,23.24-26.13,29.16C832.19,356.41,816.64,350.12,808.58,332.59Z"/><path class="cls-1" d="M836.3,404.23l3.3-.6c.57,3.13,3.49,5.3,7.84,4.51l101.7-18.51c4.35-.79,6.23-3.3,5.57-6.95l3.3-.61L964,415l-3.3.6c-.7-3.83-3.31-5.34-7.67-4.54l-101.69,18.5c-4.18.76-6.41,3.33-5.75,7l-3.3.6Z"/><path class="cls-1" d="M958.05,519l-103.17-1.67c-4.42-.07-6.92,1.48-7,4.49l-3.37-.06L845,497l31.85.51,46.88-20.3v-.35l-68.12-1.11c-4.07-.06-6.94,2.19-7,5.73l-3.36-.05.51-31.86,3.37.06c-.06,3.54,2.56,5.88,6.8,5.95l103.17,1.67c4.42.07,6.94-2.54,7-5.73l3.37.06L969,478.27a20.71,20.71,0,0,0-8.17,2L918,497.8v.53l40.34.65c4.25.07,6.94-2.36,7-5.9l3.36.05-.52,32-3.36,0C964.9,521.92,962.29,519.05,958.05,519Z"/><path class="cls-1" d="M928.32,611.9c4.11-.54,6.72-2.49,7.68-6.81l4.43-19.87L910,578.45l-4.15,18.66c-.81,3.62,1.3,7.18,4.41,7.87l-.7,3.11-28.84-6.43.69-3.11c3.45.77,6.2-1,7.16-5.29l4.12-18.49-45.78-10.19c-4.49-1-7.27.91-8.08,4.54l-3.28-.73,7.31-32.82,3.28.73c-.69,3.11,1.32,6.28,5.47,7.2L952.51,566c4.32,1,7.14-1.13,7.83-4.24l3.29.73-10,44.91c-.81,3.63-1,7.58-.54,9l-24.53-.57Z"/><path class="cls-1" d="M825.12,605.34l3.12,1.26c-1.2,2.95.1,6.35,4.2,8l95.78,38.86c4.1,1.66,7,.56,8.42-2.88l3.12,1.26-12.58,31-3.11-1.27c1.46-3.6.06-6.27-4-7.94l-95.78-38.86c-3.93-1.6-7.19-.63-8.59,2.82l-3.11-1.27Z"/><path class="cls-1" d="M867.18,766.89l-86.84-55.73c-3.73-2.39-6.67-2.38-8.3.15l-2.83-1.82,13.38-20.85,26.82,17.2L860,713.25l.19-.29-57.35-36.8c-3.43-2.2-7-1.79-9,1.19L791,675.53l17.21-26.81,2.83,1.81c-1.91,3-.92,6.35,2.66,8.65l86.84,55.72c3.72,2.39,7.24,1.49,9-1.19l2.83,1.82L897.9,738a20.8,20.8,0,0,0-8-2.61l-45.6-7.6-.28.45,34,21.79c3.57,2.3,7.15,1.65,9.06-1.33l2.83,1.81-17.3,27-2.83-1.81C871.46,773,870.75,769.18,867.18,766.89Z"/><path class="cls-1" d="M759,719.83l2.45,2.3c-2.18,2.32-2.19,6,1,9l75.33,70.78c3.22,3,6.35,3.05,8.9.35l2.45,2.3-22.91,24.38-2.45-2.31c2.67-2.83,2.33-5.83-.9-8.86L747.55,747c-3.1-2.91-6.49-3.18-9-.47l-2.45-2.3Z"/><path class="cls-1" d="M736.11,872.57c3.72,2.3,6.2,2.65,10.87-.85l9.06-6.81-57.5-76.56c-2.44-3.26-6-4.14-8.82-2l-2-2.69,26.74-20.09,2,2.69c-2.54,1.91-3.32,5.59-.66,9.13L773.3,852l9.48-7.12c4.11-3.08,5-5.74,3.43-9.88l3.5-1.52,11,21.65a27,27,0,0,0-7.12,3.79l-37.08,27.85c-2.68,2-4.1,4-4.52,5.17l-18.14-16.48Z"/><path class="cls-1" d="M612.91,821.72c1.5.28,4.61-.59,8-2.16l43.46-20.29,1.42,3.05c-2.89,1.34-4.25,4.71-2.37,8.72l43.72,93.66c1.88,4,5.09,5,8.14,3.62l1.42,3-41,19.17c-5,2.32-7.56,4.31-8.22,5.4l-14.52-19.79,3-2.77c2.93,2.93,6,4,9.52,2.39l19.08-8.91L672.14,880.4l-16.67,7.79a6.32,6.32,0,0,0-3.39,8.22l-3.21,1.5L636.29,871l3.21-1.5c1.35,2.89,4.47,4.55,8.48,2.68l16.52-7.71L647,826.91l-18.61,8.69c-4.17,1.94-5.28,5-5.32,9.51l-3.66.54Z"/><path class="cls-1" d="M529.48,842.86l.44,3.33c-2.81.37-3.81,2.28-3.55,4.21a25.48,25.48,0,0,0,1.3,4.47l11.62,31.5.18,0,2.89-33.76a27.61,27.61,0,0,0,.2-4c-.3-2.28-1.94-3.85-4.92-3.46l-.44-3.34,31.41-4.12.44,3.34c-3,.39-5,2.62-5.82,7.37l-10,55.75,23.18,47.47c1.94,3.85,3.81,5.93,7.15,5.49l.44,3.33-33.35,4.38-.43-3.34c3-.39,4.33-2.35,4.1-4.11a20.23,20.23,0,0,0-1.55-5L541.85,925l-.35,0-3.37,30.08a20.85,20.85,0,0,0,0,3.75c.35,2.63,2,4,4.94,3.64l.44,3.33-30.71,4-.44-3.34c3-.39,4.69-2.4,5.67-7.17l10.46-52.24L504.1,856.18c-2-4.2-4.36-6-7.52-5.62l-.44-3.33Z"/><path class="cls-1" d="M419.42,879.83a17.62,17.62,0,0,1,2.94.69l5-29.13c.73-4.18-1.26-7.22-4.92-7.85l.57-3.32L456.19,846l-.58,3.32c-3.14-.55-6.17,1.44-6.93,5.8L431.16,956.23c-.85,4.88.82,7.69,4.48,8.32l-.57,3.31c-6.54-.59-13.26-1.22-25.82-3.39-23-4-35.37-19.78-30.36-48.73C384,886.27,399.19,876.33,419.42,879.83Zm-11.3,66.3a18.85,18.85,0,0,0,2.82.31l8.43-48.66a19.4,19.4,0,0,0-2.76-.66c-7.15-1.23-12.95,4.23-16.09,22.37C397.56,936.58,401.32,945,408.12,946.13Z"/><path class="cls-1" d="M329.69,810.11c1,1.34,3.18,2.57,8.62,4.69l43.52,17-1.22,3.13c-3-1.16-6.34.18-7.95,4.31l-37.52,96.12c-1.6,4.12-.53,7.2,2.94,8.55L336.85,947l-31.32-12.22,1.22-3.14c3.13,1.23,6.93-.71,8.28-4.17l34.62-88.7L329.53,831c-4.45-1.74-7.59-.5-10.78,2.81l-2.85-2.44Z"/><path class="cls-1" d="M280.69,782l-1.86,2.81c-2.5-1.67-4.52-.88-5.59.75-.39.59-4.5,8.06-5.92,11.15a26.14,26.14,0,0,1,9.49,4,31,31,0,0,1,7.92,7.59c2.3-2.51,7.69-8.71,8.27-9.59,1.18-1.77,1-3.79-1.48-5.45l1.86-2.8,24.33,16.14-1.86,2.8c-2.06-1.37-4.61-.72-6.72,1.49L237.74,889a26.85,26.85,0,0,0-2.35,2.9c-1.08,1.62-1.17,3.68.6,4.86l-1.86,2.8-32.3-21.43,1.86-2.8a3.3,3.3,0,0,0,4.76-1.09,37.7,37.7,0,0,0,2-3.59l44.26-95.53c1.76-3.93.72-5.89-1.49-7.36L255,765Zm-50.75,88.68,1,.68,41.42-49a19.49,19.49,0,0,0-6-6.31,16.32,16.32,0,0,0-7.57-2.69Z"/><path class="cls-1" d="M128.62,801.64,193,766.43l24.5-24.81c2.86-2.9,3.21-6.53.69-9l2.36-2.39,23.68,23.37-2.36,2.4c-2.65-2.61-5.77-2.47-9,.81L208.34,781.6l-34.75,63.93c-2,3.52-1.59,5.89.55,8l-2.36,2.4L148.35,832.8l2.36-2.39c2.15,2.11,4.15,1.85,5.39.59a34.42,34.42,0,0,0,3-4L182,791.16l-.26-.25L144.6,814.68a17.21,17.21,0,0,0-2.61,1.9c-1.62,1.63-1.48,3.76.79,6L140.42,825l-21.54-21.26,2.36-2.39C123.25,803.31,125.76,803.29,128.62,801.64Z"/><path class="cls-1" d="M122.56,688.5l31.89-21.08c3-1.95,6.35-4.83,7.83-7.08,7.54,3.71,16.15,11,22.79,21,13.66,20.67-.42,44-34.08,66.22-37.95,25.08-62.57,19.29-74,2-2-3-4.09-8.12-5.56-10.33a11.31,11.31,0,0,0-3-2.91l17.69-15.93L89.34,723c-2.77,4.8-3.13,8.43.77,14.34,7,10.63,22.74,8.73,48.43-8.25,33.08-21.86,35.52-32,29.76-40.67a15.12,15.12,0,0,0-2.05-2.46l-31.59,20.88c-3.7,2.44-4,5.82-2.25,8.48l-2.95,2-18.54-28,3-2C115.63,689.9,119.16,690.74,122.56,688.5Z"/><path class="cls-1" d="M144.5,602.8c-9.59,7.2-31.29,19.89-44.17,25.87l3.11,8.28,37.61-14.13c3.65-1.37,5.72-4.42,4.41-7.9l3.15-1.18,11.7,31.15-3.15,1.18c-1.12-3-4.37-4.6-8.51-3L51.89,679.39c-4,1.49-5.67,4-4.24,7.83L44.5,688.4c-2.43-4.94-8.36-18.22-12.28-28.66-7.85-20.87-3.3-38.46,21.72-47.86,17.06-6.42,27.32-4.79,34.51,1.78a453.43,453.43,0,0,0,40.48-27.13c2.34-1.82,3.83-5.41,2.77-8.22l3.15-1.19ZM48.76,653a29.87,29.87,0,0,0,1.66,3.91l37.12-13.94a36.12,36.12,0,0,0-1.33-4c-2.68-7.13-9.35-11.8-24.1-6.26C47.53,638.11,46.27,646.33,48.76,653Z"/><path class="cls-1" d="M131.82,534.53c3.15,23-16.27,36.35-62.74,42.73-41,5.64-63.76-2.5-66.89-25.29-3-21.92,16.67-36.05,57.52-41.66C107.23,503.78,128.66,511.56,131.82,534.53Zm-112,15.38c1,7.54,14.54,9.62,46.28,5.26,37.17-5.1,49.09-10.67,48-18.56-1-7.37-13.09-9.46-51.14-4.23C31,536.76,18.67,541.85,19.77,549.91Z"/><path class="cls-1" d="M16.14,411.84l89.92,8a31.09,31.09,0,0,0,10.35-.51c6.39,6.08,14.52,18.53,13.16,33.86a42,42,0,0,1-19,31.73c-2.9-1.33-5.35-1.72-10.11-2.14l-89.92-8c-4.4-.39-6.93,2.05-7.21,5.22L0,479.71l2.92-33,3.35.29c-.3,3.35,1.78,6,6.19,6.42l87.79,7.78c7.58.67,10.86-4.19,11.34-9.66.52-5.82-2.39-11.05-9.45-11.67l-87.79-7.79c-4.41-.39-6.94,2.05-7.22,5.23L3.78,437l2.83-31.91,3.35.3C9.65,409,12.09,411.48,16.14,411.84Z"/><path class="cls-1" d="M46.39,304.67l97.75,33.05c4.19,1.42,7.05.7,8-2.15l3.19,1.08-7.94,23.47-30.18-10.2-50.84,5-.11.34,64.55,21.82c3.85,1.31,7.27,0,8.41-3.32l3.18,1.08-10.2,30.18L129,404c1.14-3.35-.64-6.38-4.66-7.74L26.61,363.19c-4.19-1.42-7.39.3-8.41,3.32L15,365.43l8.56-25.31a20.62,20.62,0,0,0,8.4.59L78,337.05l.17-.5L40,323.62c-4-1.36-7.34.14-8.47,3.49L28.33,326l10.26-30.34,3.19,1.07C40.76,299.78,42.37,303.31,46.39,304.67Z"/><path class="cls-1" d="M177.21,300.87c-7.78,12.47-13.29,20.29-16.17,23.92L158.18,323a5.54,5.54,0,0,0-1.71-8L67,259.2a5.47,5.47,0,0,0-8,1.87l-3-1.88c2.55-5.08,7.29-14,14-24.83,14.43-23.12,34.82-27.71,72.81-4C181.66,254.63,192.77,276,177.21,300.87ZM87.59,240.56A37.64,37.64,0,0,0,85,245l76,47.41a28.15,28.15,0,0,0,2.3-3.36c6-9.6-2.75-21.32-32.33-39.78C103.19,231.94,92.27,233.05,87.59,240.56Z"/></g></g></g></g></svg>