<svg xmlns="http://www.w3.org/2000/svg" viewBox="0 0 641.97 639.57"><defs><style>.cls-1{fill:#48423c;}</style></defs><g id="Layer_2" data-name="Layer 2"><g id="_1920_Circular-Demo_1" data-name="1920_Circular-Demo_1"><g id="Demo-1_Rings"><g id="demo-1_circle-3"><path class="cls-1" d="M207.88,105.72c-15.15-17.29-45.61-51.91-45.61-51.91l-.73-1.21,18.9,75.18-.76.56L115.23,88l-1.77-1.63,35,62.37-2.75,1.85L109.6,85.7l-3.44-4.36,7-5s4.21,2.78,7.2,4.7c23.35,15.14,42.32,26.46,52.56,32.74a11.23,11.23,0,0,1,1.27,1.56L156.52,44.87,162,40.92c15.38,17.42,43.78,49.59,53.08,59.61Z"/><path class="cls-1" d="M228.7,98.48c-2.56-6.47-24.35-62.57-29.08-73.9l8.12-3.21c8.33,21.07,21,52.85,29.3,73.81Z"/><path class="cls-1" d="M272.43,85c-1.25-6.85-10.45-57.1-13.73-75l-27.27,5,.24-3.28L295.62,0l.58,3.13L267.53,8.38c4.1,22.41,9.53,52.72,13.61,75Z"/><path class="cls-1" d="M369.88,86.29s-.77-5.47-1.38-8.86C363.75,50.26,356.74,12.71,354.7.7l9.47,2c3.08,22.48,12,70.56,12,70.56l-.29,1.39,41.09-60.79,3.23.69-49.24,72Z"/><path class="cls-1" d="M446.57,114.17c.89-8.09,1.85-19.55,2.56-29.69L420.66,70.71l-22.53,20-3.08-1.49,65-58.07,1,.46s-.77,5.39-1,8.82c-1.9,27.53-3.82,65.92-4.34,78.12Zm2.77-33.39c1.15-16.75,2.56-38.09,2.56-38.09l.62-1.27-29.2,26.77Z"/><path class="cls-1" d="M461.6,124.41c4.55-5.28,44-50.69,51.87-60.14l6.79,5.86-49.62,57.71S495,149.3,500.05,152.27l-3.69,2.12Z"/><path class="cls-1" d="M560,182.75l5.15,7.34-24,17c-7-4.44-17.19-13.59-21.94-20.35-11.8-16.8-13.24-42,8.29-57.16,18.24-12.82,43.13-11.27,57.78,9.58,6.65,9.46,9.68,18.29,9.38,29.76l-7.81,2c5.06-12.5,1.95-20.41-3.47-28.13-12.83-18.25-35.34-15.4-50.12-5-18.43,13-21.28,33.13-9.81,49.45,3,4.34,8.55,8.27,13.93,11.41Z"/><path class="cls-1" d="M550.91,247.33c6.81-1.46,65.69-13.91,77.64-16.73l4.67,21.69c2.93,13.61-3.82,23.16-13.17,25.17a19.24,19.24,0,0,1-21.59-12.25c2,12-1.09,22.93-14.7,25.86-15.46,3.34-25.24-8.44-28.25-22.4Zm5.3,7.79c2,16.1,6.54,30.34,24,26.59,12.46-2.69,16.74-11.94,14.21-23.71-.78-3.57-1.66-7.12-2.41-10.58Zm38-8.18C598,264.71,604,271.26,616.8,268.5c16.49-3.55,12.56-20.69,10.82-28.76Z"/><path class="cls-1" d="M558.82,360.94c1.76.12,10.8-.56,16.45-.18-7.5-4.41-17.17-11.81-16.14-26.88,1.31-19.19,14.68-29.51,33.75-28.21L642,309l-.63,9.18-49.56-3.39c-14.59-1.11-26.1,6.38-27.12,21.21s9.88,25,24.36,26c15.65,1.07,42.49,3,49.09,3.36-.21,3.06-.6,8.71-.6,8.71-22.6-1.55-56.55-4.93-79.2-5.77Z"/><path class="cls-1" d="M552.55,383.78c6.68,2,64.3,19.32,76.14,22.57l-2.47,8.37c-21.73-6.4-54.59-16-76.21-22.33Z"/><path class="cls-1" d="M545.31,408.37c6.23,3.11,59.94,30.27,71,35.55l-4,8L544.2,418s-14.84,28.86-16.48,34.5l-3-3.06Z"/><path class="cls-1" d="M521,456.75c5.17,4.66,49.75,45.08,59,53.11l-13.17,14.65a148.74,148.74,0,0,1-12,12.34c-8.16,6.95-30.52,17-49.91-.46-25.18-22.65-12-46.07-6.67-53.45,4.12-5.82,13.06-15.4,16.53-19.26Zm-2.66,9.83c-2.11,1.12-16.16,15.15-19.07,23.32-2.78,7.5-6.94,22,8.91,37.38,11.71,11.33,31.34,14.39,45.43,4.37,5.48-3.8,14.38-14,17.62-17.64C554.34,498.85,535.13,481.74,518.29,466.58Z"/><path class="cls-1" d="M464.28,512.75c4.05,5.67,38.81,54.8,46.14,64.64l-7.1,5.08C490.13,564.05,470.11,536.3,457,518Z"/><path class="cls-1" d="M397,564.08c2.78,6.38,21.25,48.79,26.36,59.95l-3.46,1.5c-9-20.77-22.79-53.52-32.37-74.06,11.51,5.16,82.16,40.93,82.16,40.93l-1.79-2c-9.09-20.88-17.29-39.7-26.47-60.8l3.46-1.51c2.54,5.84,22.36,51.65,29.3,67.29l3.05,5.24-4.65,2c-7.08-4.12-74-37-74-37Z"/><path class="cls-1" d="M322.6,595.68l-8.93.84-2.89-29.24c7.33-3.89,20.32-8.21,28.54-9,20.44-1.94,43.08,9.3,45.57,35.5C387,616,373.33,636.85,348,639.26c-11.52,1.09-20.69-.64-30.5-6.59l2.1-7.78c8.36,10.58,16.77,11.8,26.17,10.91,22.2-2.11,30.88-23.09,29.17-41.06-2.13-22.44-18.24-34.9-38.1-33-5.28.5-11.42,3.34-16.81,6.46Z"/><path class="cls-1" d="M212,551.19c-2.27,6.58-17.35,50.31-21.13,62l-3.57-1.23c7.39-21.41,19.42-54.83,26.25-76.44,5,11.58,32.83,85.72,32.83,85.72l.07-2.73c7.43-21.52,14.12-40.93,21.63-62.68l3.57,1.23c-2.08,6-18.47,53.17-23.94,69.38l-1.29,5.92-4.8-1.66c-2.42-7.82-29.49-77.32-29.49-77.32Z"/><path class="cls-1" d="M172.31,508.49c-1.78,2.21-11.22,14.15-17.36,21.78l20,16,29.4-12.09,2.57,2.07-84.42,34-31.08-25,1.26-3.83c4,4.1,25,20.87,25,20.87l21.59-26.86c-4.6-3.69-16.11-13.1-22-16.74l2.74-3.41c5,4.75,12.34,10.83,21.32,17.75l22-27.58s-25-20.53-30.24-23.4l3.62-2.24Zm-45.23,56.45-2.23,1.84,46.35-19.06-18.39-14.78Z"/><path class="cls-1" d="M121.59,480c5.57-10.31,2.58-17.69-1.32-23.46-5.42-8-14.47-10.87-21.9-5.85-18.67,12.62,7.19,40.15-14.81,55-10.75,7.27-22.83,1.19-28.51-7.21-3.57-5.28-6-12.73-5.26-18.1l7-1.19c-4.13,8.21-1.42,13.49,1.36,17.6,4.09,6.06,11.29,10.17,18.52,5.28,18.77-12.68-7.94-40.2,14-55.07,11.93-8.06,25.28-3.27,32.42,7.29,5.48,8.12,7,15.47,6.13,23.62Z"/><path class="cls-1" d="M98,409.05l-71.4,26.7c0-.11,7.56,20.23,9.71,26l-3.27.35s-21.7-58-22.78-60.9l3-1.12,10.21,27.3c21.33-8,50.22-18.65,71.44-26.59Z"/><path class="cls-1" d="M83,340s-5,2.29-8.11,3.83c-24.72,12.24-58.74,29.6-69.68,35l-.76-9.65c20.69-9.32,64.28-31.45,64.28-31.45l1.41-.11L.26,315.41,0,312.11,83,339Z"/><path class="cls-1" d="M80.91,300.33,2.63,287l6.7-39.32,4-.76c-1.65,5.47-6,32-6,32l34,5.78c1-5.81,3.61-20.45,3.94-27.33l4.31.73c-1.73,6.65-3.46,16-5.13,27.25l34.8,5.82s5.78-31.82,5.73-37.81l3.71,2.07Z"/><path class="cls-1" d="M90.71,245.19c-6.27-3-60.41-29.29-71.57-34.39L27.67,193a146.4,146.4,0,0,1,8.1-15.22c5.88-9,24.52-24.88,48-13.58,30.53,14.66,24.5,40.83,21.42,49.43-2.32,6.74-8.21,18.44-10.46,23.12ZM90.5,235c1.72-1.66,11.26-19.07,11.76-27.74.56-8,.48-23.07-19.05-33.37-14.42-7.58-34.12-5-44.83,8.57-4.2,5.19-9.86,17.52-12,21.88C46.85,214.16,70.08,225.2,90.5,235Z"/></g></g></g></g></svg>