<svg xmlns="http://www.w3.org/2000/svg" viewBox="0 0 1322.67 1327.39"><defs><style>.cls-1{fill:#48423c;}</style></defs><g id="Layer_2" data-name="Layer 2"><g id="_1920_Circular-Demo_1" data-name="1920_Circular-Demo_1"><g id="Demo-1_Rings"><g id="demo-1_circle-1"><path class="cls-1" d="M207.31,184.21l46.33,52.09,7.49-6.66c16.84-15,27.05-25.17,31.69-31.26l.32-.28,5.82,6.55-.31.28c-6.59,3.9-18.18,12.54-35,27.52l-7.49,6.66,49.66,55.83-10.6,9.44-101-113.54,59.58-53,8.25,5.51-.31.27A304.58,304.58,0,0,0,214.33,178Z"/><path class="cls-1" d="M446.81,177.87l9.71,16.81-.9.52-83.83-28.71c-4.2-1.44-6.74-1.66-12.71,1.79l-15.72,9.08,34.24,59.28-12.29,7.1-76-131.58,26.93-15.55c33.08-19.1,58.06-18.83,71.11,3.76,11.17,19.34,2.35,37.45-10.81,53.49Zm-72-68.79c-11.16-19.34-31.2-24.4-57-9.48L303.27,108,341,173.2c5-1.7,15-7,19.16-9.38C381.45,151.5,385.64,127.87,374.78,109.08Z"/><path class="cls-1" d="M414.22,47.84l13.24-5.12,54.82,141.72L469,189.56Z"/><path class="cls-1" d="M583.7,2.89l29.72,149-14.13,2.81L584.19,79l-80,16,15.1,75.73-13.92,2.78-29.71-149,13.92-2.78,13.88,69.6,80-16L569.58,5.7Z"/><path class="cls-1" d="M727.19,144.66l-3.86,9.9-86.58-2.69L641.46,0l83.66,2.59,2.21,9.68h-.42a305.81,305.81,0,0,0-58-7.65L655.53,4.2l-2.08,67.17,12.1.38c22.53.69,37,.31,44.51-.92h.42l-.28,8.76h-.41C702.32,77.9,688,76.2,665.43,75.5l-12.1-.38-2.27,73.44,13.56.42c18.15.56,41.36-.39,62.15-4.34Z"/><path class="cls-1" d="M882.5,114.5c-13.18,47.46-51,66.64-97.45,53.74l-47.26-13.12L778.43,8.71l49.28,13.68C873,35,895.28,68.44,882.5,114.5Zm-15.62-3C878.38,70,861.4,35.21,824.8,25.05l-33.58-9.32L752.86,153.89q8.25,4.23,35.09,11.69C825,175.85,854.37,156.51,866.88,111.46Z"/><path class="cls-1" d="M999.23,92.58l11.64,8.13-87,124.58-11.64-8.12Zm17,71.48-26.72,4,20.17,98.35-10.64,15.23-.85-.6L975,166l40.89-6.06c30.55-4.38,49.65-9.12,60.74-13.34l11.3,7.89-.24.34C1064.42,157.46,1040.84,160.59,1016.27,164.06Z"/><path class="cls-1" d="M1044.71,252.5l76.18-67.31,9.53,10.8-75.55,66.75c-23.62,20.86-26.3,42.73-7.51,64,18,20.34,40.2,21.86,63.67,1.13l26.59-23.49c21.9-19.35,36.81-33.36,47.94-46l6.5,7.35c-13.9,9.49-29.78,22.41-51.68,41.76l-25.81,22.8c-25.81,22.8-51.39,22.85-74.61-3.43C1017,300.91,1019.21,275,1044.71,252.5Z"/><path class="cls-1" d="M1271.79,405.17c-15.69,6-34.22,14.72-60.15,28.19L1133.48,474l-.67-1.29,77.34-146.75L1150.33,357c-25.93,13.47-43.79,23.46-57.65,33l-4.42-8.52c15.68-6,34.22-14.72,60.14-28.2l65.2-33.87,6.53-12.33.55-.29,7.8,15-72.11,135.55,53.34-27.71c25.93-13.48,43.79-23.46,57.65-33Z"/><path class="cls-1" d="M1162.57,525.73l10.61,1.33c-8.94,11.94-13,32.35-10.25,48.18,3.55,20.35,18.74,33.38,37,30.2,20.56-3.59,26.81-22.47,31.49-39.39l2.93-11.1c5.22-18.71,11.92-41.06,34.74-45,21.38-3.72,40.33,11.41,45,38.34,2.73,15.63,0,32.63-4.14,43.1l-9.48-.89c7.4-11,12.84-27.24,10-43.48-3.47-20-17.61-29.35-32.62-26.73-18.3,3.19-23.63,20-28.88,38.5l-2.94,11.11c-6,21.38-12.32,41.13-36.59,45.35-26.52,4.62-45.64-15.14-50.12-40.84C1156.49,557.72,1158.74,537.83,1162.57,525.73Z"/><path class="cls-1" d="M1309.62,735.58v-.42c5-16.57,7.25-29.46,7.57-42l.15-5.64-148.14-3.87.38-14.39,148.14,3.87.15-5.85c.33-12.52-1.22-25.29-5.37-42.1v-.42l10.15,2.77-2.75,105.57Z"/><path class="cls-1" d="M1202.61,803.86l13-61.9c-22.19-14.23-34.62-20-46.29-24.39l2.26-10.83c18.55,13.26,38.25,26.12,59.42,40.14l79.28,52.19-.17.82-163.86,28,3.16-15.11Zm4-.66,81.58-13.86-59.47-38.87-9.77-6.31Z"/><path class="cls-1" d="M1155.81,985.33c-44.09-22-55.73-62.73-34.23-105.89l21.86-43.9,136,67.73-22.79,45.78C1235.72,991.08,1198.6,1006.64,1155.81,985.33Zm6-14.76c38.49,19.17,75.9,9.12,92.84-24.88l15.54-31.2-128.35-63.92q-5.73,7.29-18.15,32.23C1106.51,917.17,1119.91,949.73,1161.76,970.57Z"/><path class="cls-1" d="M1193.61,1054.1l-8.52,11.35-121.55-91.19,8.52-11.35Z"/><path class="cls-1" d="M1085,1031.25l70.28,73.44-10.41,10-69.7-72.84c-21.79-22.77-43.74-24.58-64.25-5-19.61,18.76-20.25,41,1.4,63.66l24.53,25.63c20.2,21.12,34.8,35.46,47.85,46.08l-7.09,6.78c-10-13.5-23.57-28.86-43.77-50L1010,1104.15c-23.81-24.89-24.88-50.45.46-74.69C1035.51,1005.51,1061.47,1006.67,1085,1031.25Z"/><path class="cls-1" d="M839.53,1144.36l76.64,118.2-13.93-140.15.74-.39,109.11,86.15-26.76-64.68c-11.13-27.15-20.25-45.94-28.54-60.44l8.69-4.55c5,16.25,12.52,36.09,23.65,63.24l29.59,71.91,6,4.65.29.55-13.69,7.16-102.77-81.69,12.7,128.79-11.47,6-83-128.06Z"/><path class="cls-1" d="M738.22,1246.12c1.09,48.21-31.58,80.26-74.78,81.25-24.83.56-45.29-8.79-57.73-23.33l8-7.48c12.73,17.87,30.28,27.91,50.73,27.44,34.43-.78,59-31.19,58-73.55-1-45.07-29.23-73.45-64.91-72.64-20.24.46-40.07,9.89-53.56,31.7l-2.54-1.4c13.48-22.44,33.81-37.1,62.19-37.74C704.74,1169.43,737.13,1198.34,738.22,1246.12Z"/><path class="cls-1" d="M581.54,1247.61c-12.66,46.74-54.89,67.74-97.2,56.28-40.89-11.08-66.19-48.63-53.74-94.57,12.65-46.74,54.89-67.73,97.19-56.27C568.89,1164.18,594,1201.68,581.54,1247.61Zm-135.09-36.15c-11.89,43.92,6.53,80.48,40.38,89.64,34.25,9.28,67.18-12.51,78.85-55.62,11.9-43.92-6.32-80.43-40.77-89.76C491.26,1146.61,458.18,1168.14,446.45,1211.46Z"/><path class="cls-1" d="M304.75,1174.53c14.26-24.54,43.15-29,74.37-10.85a135.17,135.17,0,0,1,14.71,10l32.72-56.3,12.27,7.13-76.33,131.38-27.62-16C301.31,1220.33,291.32,1197.63,304.75,1174.53Zm14.79,5.7c-12.06,20.76-8.43,41.93,17.91,57.24l14.44,8.39L392,1176.92a66.2,66.2,0,0,0-13.24-9.62C353.26,1152.52,332.33,1158.21,319.54,1180.23Z"/><path class="cls-1" d="M275.16,1016.74l9.32-5.11,64.62,57.69L247.9,1182.67l-62.44-55.74,4.53-8.83.31.28a306,306,0,0,0,39.55,43.14l10,8.89,44.76-50.13-9-8.06c-16.81-15-28.11-24-34.69-27.9l-.31-.28,5.84-6.54.31.28c4.63,6.1,14.54,16.62,31.36,31.63l9,8.07L336,1062.67l-10.12-9c-13.55-12.09-31.94-26.27-50.42-36.61Z"/><path class="cls-1" d="M90,1004.48c14.67-8.19,31.79-19.41,55.55-36.42l71.63-51.26.85,1.19L162.26,1074.2,217.08,1035c23.77-17,40-29.42,52.4-40.84l5.59,7.81c-14.68,8.19-31.79,19.42-55.56,36.42l-59.74,42.76-4.72,13.13-.51.37-9.84-13.75,52.2-144.39-48.88,35c-23.76,17-40,29.42-52.39,40.83Z"/><path class="cls-1" d="M22.18,850.26l141.7-54.85,5.19,13.43-72,27.88,29.46,76.1,72-27.88,5.13,13.24L62,953l-5.12-13.24L123,914.18,93.55,838.07,27.38,863.69Z"/><path class="cls-1" d="M100.35,706.64l7.83,62.76c25.6,6.27,39.24,7.72,51.69,8.06l1.37,11c-21.84-6.53-44.65-12.31-69.22-18.71L.1,746.07l-.1-.83,145.92-79.62L147.83,681Zm-3.55,1.92L24.13,748.12,93,765.61l11.29,2.8Z"/><path class="cls-1" d="M93.08,524.79l51,6.13c7.88,13.14,16.13,33.68,12.79,61.45-5.56,46.21-38.41,74.64-86.28,68.88S-4.35,618.19,1,574.05c2.87-23.84,15-42.77,31.21-53.22L38.42,530C19.16,539.87,6.52,555.79,4,576.52c-4.19,34.81,21.81,63.37,67,68.81,43.93,5.28,77.69-16.73,82.25-54.65,2.17-18-2.39-34.35-10.44-46l-47.67-5.73-4.53,37.72-4,1.83Z"/><path class="cls-1" d="M191.56,430.15l8.1,6.88-30.78,81-142-54,29.74-78.24,9.87,1.07-.15.39a306.14,306.14,0,0,0-26.16,52.36L35.4,452.07,98.22,476l4.31-11.32c8-21.07,12.34-34.82,13.65-42.37l.15-.39,8.19,3.12-.15.39c-4,6.5-10.32,19.52-18.33,40.59l-4.3,11.32,68.67,26.1,4.82-12.68c6.46-17,13.13-39.22,16.18-60.17Z"/><path class="cls-1" d="M137.15,252.83c12.88,10.8,29.46,22.81,53.81,39l73.38,48.7-.81,1.22L97.7,345.13l56.17,37.28c24.35,16.15,41.73,26.94,56.8,34.43l-5.31,8c-12.87-10.79-29.45-22.8-53.8-39L90.35,345.26l-13.95.26-.52-.34,9.34-14.09,153.51-2.58-50.08-33.24c-24.35-16.15-41.74-26.94-56.8-34.44Z"/></g></g></g></g></svg>